<mxfile host="app.diagrams.net" agent="Mozilla/5.0 (Windows NT 10.0; Win64; x64) AppleWebKit/537.36 (KHTML, like Gecko) Chrome/131.0.0.0 Safari/537.36" version="24.8.4">
  <diagram name="PÃ¡gina-1" id="gnQpEkFofbsVkcykbC2b">
    <mxGraphModel grid="1" page="1" gridSize="10" guides="1" tooltips="1" connect="1" arrows="1" fold="1" pageScale="1" pageWidth="827" pageHeight="1169" math="0" shadow="0">
      <root>
        <mxCell id="0" />
        <mxCell id="1" parent="0" />
        <mxCell id="v_abhQieS6RaejQ8PZbX-2" value="Fin" style="strokeWidth=2;html=1;shape=mxgraph.flowchart.terminator;whiteSpace=wrap;fillColor=#fff2cc;strokeColor=#d6b656;" vertex="1" parent="1">
          <mxGeometry x="787" y="820" width="100" height="60" as="geometry" />
        </mxCell>
        <mxCell id="FpW7mS7BKre-1OPNzRV8-15" style="edgeStyle=orthogonalEdgeStyle;shape=connector;rounded=0;orthogonalLoop=1;jettySize=auto;html=1;strokeColor=default;align=center;verticalAlign=middle;fontFamily=Helvetica;fontSize=12;fontColor=default;labelBackgroundColor=default;startSize=8;endArrow=classic;endSize=8;strokeWidth=2;" edge="1" parent="1" source="v_abhQieS6RaejQ8PZbX-3" target="v_abhQieS6RaejQ8PZbX-4">
          <mxGeometry relative="1" as="geometry" />
        </mxCell>
        <mxCell id="v_abhQieS6RaejQ8PZbX-3" value="Inicio" style="strokeWidth=2;html=1;shape=mxgraph.flowchart.start_1;whiteSpace=wrap;fillColor=#fff2cc;strokeColor=#d6b656;" vertex="1" parent="1">
          <mxGeometry x="688" y="100" width="132" height="60" as="geometry" />
        </mxCell>
        <mxCell id="v_abhQieS6RaejQ8PZbX-12" value="" style="edgeStyle=none;curved=1;rounded=0;orthogonalLoop=1;jettySize=auto;html=1;fontSize=12;startSize=8;endSize=8;strokeWidth=2;" edge="1" parent="1" source="v_abhQieS6RaejQ8PZbX-4" target="v_abhQieS6RaejQ8PZbX-5">
          <mxGeometry relative="1" as="geometry">
            <mxPoint x="880" y="260" as="targetPoint" />
          </mxGeometry>
        </mxCell>
        <mxCell id="v_abhQieS6RaejQ8PZbX-4" value="Elimina Duplicados" style="rounded=1;whiteSpace=wrap;html=1;absoluteArcSize=1;arcSize=14;strokeWidth=2;fillColor=#fad9d5;strokeColor=#ae4132;" vertex="1" parent="1">
          <mxGeometry x="678" y="190" width="152" height="60" as="geometry" />
        </mxCell>
        <mxCell id="FpW7mS7BKre-1OPNzRV8-33" value="" style="edgeStyle=orthogonalEdgeStyle;shape=connector;rounded=0;orthogonalLoop=1;jettySize=auto;html=1;strokeColor=#9673a6;align=center;verticalAlign=middle;fontFamily=Helvetica;fontSize=12;fontColor=default;labelBackgroundColor=default;startSize=8;endArrow=classic;endSize=8;strokeWidth=2;fillColor=#e1d5e7;" edge="1" parent="1" source="v_abhQieS6RaejQ8PZbX-5" target="v_abhQieS6RaejQ8PZbX-14">
          <mxGeometry relative="1" as="geometry" />
        </mxCell>
        <mxCell id="RaB-RKomqh1cUEQTINMl-4" style="edgeStyle=orthogonalEdgeStyle;shape=connector;rounded=0;orthogonalLoop=1;jettySize=auto;html=1;strokeColor=#9673a6;strokeWidth=2;align=center;verticalAlign=middle;fontFamily=Helvetica;fontSize=12;fontColor=default;labelBackgroundColor=default;startSize=8;endArrow=classic;endSize=8;fillColor=#e1d5e7;" edge="1" parent="1" source="v_abhQieS6RaejQ8PZbX-5" target="RaB-RKomqh1cUEQTINMl-2">
          <mxGeometry relative="1" as="geometry" />
        </mxCell>
        <mxCell id="v_abhQieS6RaejQ8PZbX-5" value="Comprueba&amp;nbsp;&lt;div&gt;Perro&lt;/div&gt;" style="shape=parallelogram;html=1;strokeWidth=2;perimeter=parallelogramPerimeter;whiteSpace=wrap;rounded=1;arcSize=12;size=0.23;fillColor=#ffe6cc;strokeColor=#d79b00;" vertex="1" parent="1">
          <mxGeometry x="678" y="280" width="152" height="60" as="geometry" />
        </mxCell>
        <mxCell id="v_abhQieS6RaejQ8PZbX-24" value="" style="edgeStyle=none;curved=1;rounded=0;orthogonalLoop=1;jettySize=auto;html=1;fontSize=12;startSize=8;endSize=8;strokeColor=#BC4F4F;fontColor=#BC4F4F;strokeWidth=2;" edge="1" parent="1" source="v_abhQieS6RaejQ8PZbX-14" target="RaB-RKomqh1cUEQTINMl-1">
          <mxGeometry relative="1" as="geometry">
            <mxPoint x="754" y="500" as="targetPoint" />
          </mxGeometry>
        </mxCell>
        <mxCell id="FpW7mS7BKre-1OPNzRV8-18" value="" style="edgeStyle=orthogonalEdgeStyle;shape=connector;rounded=0;orthogonalLoop=1;jettySize=auto;html=1;strokeColor=#4ebc7d;align=center;verticalAlign=middle;fontFamily=Helvetica;fontSize=12;fontColor=default;labelBackgroundColor=default;startSize=8;endArrow=classic;endSize=8;strokeWidth=2;" edge="1" parent="1" source="v_abhQieS6RaejQ8PZbX-14" target="v_abhQieS6RaejQ8PZbX-26">
          <mxGeometry relative="1" as="geometry">
            <mxPoint x="670" y="420" as="targetPoint" />
          </mxGeometry>
        </mxCell>
        <mxCell id="v_abhQieS6RaejQ8PZbX-14" value="Tiene Padre" style="strokeWidth=2;html=1;shape=mxgraph.flowchart.decision;whiteSpace=wrap;fillColor=#e1d5e7;strokeColor=#9673a6;" vertex="1" parent="1">
          <mxGeometry x="704" y="370" width="100" height="100" as="geometry" />
        </mxCell>
        <mxCell id="RaB-RKomqh1cUEQTINMl-39" value="" style="edgeStyle=orthogonalEdgeStyle;shape=connector;rounded=0;orthogonalLoop=1;jettySize=auto;html=1;strokeColor=#9673a6;strokeWidth=2;align=center;verticalAlign=middle;fontFamily=Helvetica;fontSize=12;fontColor=default;labelBackgroundColor=default;startSize=8;endArrow=classic;endSize=8;fillColor=#e1d5e7;" edge="1" parent="1" source="v_abhQieS6RaejQ8PZbX-26" target="RaB-RKomqh1cUEQTINMl-27">
          <mxGeometry relative="1" as="geometry" />
        </mxCell>
        <mxCell id="RaB-RKomqh1cUEQTINMl-53" style="edgeStyle=orthogonalEdgeStyle;shape=connector;rounded=0;orthogonalLoop=1;jettySize=auto;html=1;strokeColor=default;strokeWidth=2;align=center;verticalAlign=middle;fontFamily=Helvetica;fontSize=12;fontColor=default;labelBackgroundColor=default;startSize=8;endArrow=classic;endSize=8;" edge="1" parent="1" source="v_abhQieS6RaejQ8PZbX-26" target="FpW7mS7BKre-1OPNzRV8-118">
          <mxGeometry relative="1" as="geometry">
            <Array as="points">
              <mxPoint x="594" y="760" />
            </Array>
          </mxGeometry>
        </mxCell>
        <mxCell id="v_abhQieS6RaejQ8PZbX-26" value="Escribir nombre Padre" style="rounded=1;whiteSpace=wrap;html=1;absoluteArcSize=1;arcSize=14;strokeWidth=2;fillColor=#dae8fc;strokeColor=#6c8ebf;" vertex="1" parent="1">
          <mxGeometry x="518" y="390" width="152" height="60" as="geometry" />
        </mxCell>
        <mxCell id="v_abhQieS6RaejQ8PZbX-43" value="Si" style="text;html=1;align=center;verticalAlign=middle;resizable=0;points=[];autosize=1;strokeColor=none;fillColor=none;fontSize=16;fontColor=#4EBC7D;" vertex="1" parent="1">
          <mxGeometry x="670" y="390" width="40" height="30" as="geometry" />
        </mxCell>
        <mxCell id="FpW7mS7BKre-1OPNzRV8-23" value="No" style="text;html=1;align=center;verticalAlign=middle;resizable=0;points=[];autosize=1;strokeColor=none;fillColor=none;fontSize=16;fontColor=#BC4F4F;" vertex="1" parent="1">
          <mxGeometry x="755" y="470" width="40" height="30" as="geometry" />
        </mxCell>
        <mxCell id="FpW7mS7BKre-1OPNzRV8-119" value="" style="edgeStyle=orthogonalEdgeStyle;shape=connector;rounded=0;orthogonalLoop=1;jettySize=auto;html=1;strokeColor=default;align=center;verticalAlign=middle;fontFamily=Helvetica;fontSize=12;fontColor=default;labelBackgroundColor=default;startSize=8;endArrow=classic;endSize=8;" edge="1" parent="1" source="FpW7mS7BKre-1OPNzRV8-118" target="v_abhQieS6RaejQ8PZbX-2">
          <mxGeometry relative="1" as="geometry" />
        </mxCell>
        <mxCell id="FpW7mS7BKre-1OPNzRV8-118" value="Muestra Familiares" style="shape=parallelogram;html=1;strokeWidth=2;perimeter=parallelogramPerimeter;whiteSpace=wrap;rounded=1;arcSize=12;size=0.23;fillColor=#ffe6cc;strokeColor=#d79b00;" vertex="1" parent="1">
          <mxGeometry x="761" y="730" width="152" height="60" as="geometry" />
        </mxCell>
        <mxCell id="RaB-RKomqh1cUEQTINMl-43" style="edgeStyle=orthogonalEdgeStyle;shape=connector;rounded=0;orthogonalLoop=1;jettySize=auto;html=1;strokeColor=default;strokeWidth=2;align=center;verticalAlign=middle;fontFamily=Helvetica;fontSize=12;fontColor=default;labelBackgroundColor=default;startSize=8;endArrow=classic;endSize=8;" edge="1" parent="1" source="RaB-RKomqh1cUEQTINMl-1" target="FpW7mS7BKre-1OPNzRV8-118">
          <mxGeometry relative="1" as="geometry" />
        </mxCell>
        <mxCell id="RaB-RKomqh1cUEQTINMl-1" value="Escribir Desconocido" style="rounded=1;whiteSpace=wrap;html=1;absoluteArcSize=1;arcSize=14;strokeWidth=2;fillColor=#dae8fc;strokeColor=#6c8ebf;" vertex="1" parent="1">
          <mxGeometry x="678" y="500" width="152" height="60" as="geometry" />
        </mxCell>
        <mxCell id="RaB-RKomqh1cUEQTINMl-2" value="Tiene Madre" style="strokeWidth=2;html=1;shape=mxgraph.flowchart.decision;whiteSpace=wrap;fillColor=#e1d5e7;strokeColor=#9673a6;" vertex="1" parent="1">
          <mxGeometry x="873" y="370" width="100" height="100" as="geometry" />
        </mxCell>
        <mxCell id="RaB-RKomqh1cUEQTINMl-5" value="" style="edgeStyle=none;curved=1;rounded=0;orthogonalLoop=1;jettySize=auto;html=1;fontSize=12;startSize=8;endSize=8;strokeColor=#BC4F4F;fontColor=#BC4F4F;strokeWidth=2;" edge="1" parent="1" source="RaB-RKomqh1cUEQTINMl-2" target="RaB-RKomqh1cUEQTINMl-10">
          <mxGeometry relative="1" as="geometry">
            <mxPoint x="923" y="470" as="sourcePoint" />
            <mxPoint x="923" y="500" as="targetPoint" />
          </mxGeometry>
        </mxCell>
        <mxCell id="RaB-RKomqh1cUEQTINMl-6" value="" style="edgeStyle=orthogonalEdgeStyle;shape=connector;rounded=0;orthogonalLoop=1;jettySize=auto;html=1;strokeColor=#4ebc7d;align=center;verticalAlign=middle;fontFamily=Helvetica;fontSize=12;fontColor=default;labelBackgroundColor=default;startSize=8;endArrow=classic;endSize=8;strokeWidth=2;" edge="1" parent="1" source="RaB-RKomqh1cUEQTINMl-2" target="RaB-RKomqh1cUEQTINMl-7">
          <mxGeometry relative="1" as="geometry">
            <mxPoint x="1015" y="339.6" as="sourcePoint" />
            <mxPoint x="980" y="339.6" as="targetPoint" />
          </mxGeometry>
        </mxCell>
        <mxCell id="RaB-RKomqh1cUEQTINMl-12" value="" style="edgeStyle=orthogonalEdgeStyle;shape=connector;rounded=0;orthogonalLoop=1;jettySize=auto;html=1;strokeColor=#9673a6;strokeWidth=2;align=center;verticalAlign=middle;fontFamily=Helvetica;fontSize=12;fontColor=default;labelBackgroundColor=default;startSize=8;endArrow=classic;endSize=8;fillColor=#e1d5e7;" edge="1" parent="1" source="RaB-RKomqh1cUEQTINMl-7" target="RaB-RKomqh1cUEQTINMl-11">
          <mxGeometry relative="1" as="geometry" />
        </mxCell>
        <mxCell id="RaB-RKomqh1cUEQTINMl-25" value="" style="edgeStyle=orthogonalEdgeStyle;shape=connector;rounded=0;orthogonalLoop=1;jettySize=auto;html=1;strokeColor=#9673a6;strokeWidth=2;align=center;verticalAlign=middle;fontFamily=Helvetica;fontSize=12;fontColor=default;labelBackgroundColor=default;startSize=8;endArrow=classic;endSize=8;fillColor=#e1d5e7;" edge="1" parent="1" source="RaB-RKomqh1cUEQTINMl-7" target="RaB-RKomqh1cUEQTINMl-20">
          <mxGeometry relative="1" as="geometry" />
        </mxCell>
        <mxCell id="RaB-RKomqh1cUEQTINMl-45" style="edgeStyle=orthogonalEdgeStyle;shape=connector;rounded=0;orthogonalLoop=1;jettySize=auto;html=1;strokeColor=default;strokeWidth=2;align=center;verticalAlign=middle;fontFamily=Helvetica;fontSize=12;fontColor=default;labelBackgroundColor=default;startSize=8;endArrow=classic;endSize=8;" edge="1" parent="1" source="RaB-RKomqh1cUEQTINMl-7" target="FpW7mS7BKre-1OPNzRV8-118">
          <mxGeometry relative="1" as="geometry">
            <Array as="points">
              <mxPoint x="1086" y="760" />
            </Array>
          </mxGeometry>
        </mxCell>
        <mxCell id="RaB-RKomqh1cUEQTINMl-7" value="Escribir nombre Madre" style="rounded=1;whiteSpace=wrap;html=1;absoluteArcSize=1;arcSize=14;strokeWidth=2;fillColor=#dae8fc;strokeColor=#6c8ebf;" vertex="1" parent="1">
          <mxGeometry x="1010" y="390" width="152" height="60" as="geometry" />
        </mxCell>
        <mxCell id="RaB-RKomqh1cUEQTINMl-8" value="Si" style="text;html=1;align=center;verticalAlign=middle;resizable=0;points=[];autosize=1;strokeColor=none;fillColor=none;fontSize=16;fontColor=#4EBC7D;" vertex="1" parent="1">
          <mxGeometry x="969" y="390" width="40" height="30" as="geometry" />
        </mxCell>
        <mxCell id="RaB-RKomqh1cUEQTINMl-9" value="No" style="text;html=1;align=center;verticalAlign=middle;resizable=0;points=[];autosize=1;strokeColor=none;fillColor=none;fontSize=16;fontColor=#BC4F4F;" vertex="1" parent="1">
          <mxGeometry x="924" y="470" width="40" height="30" as="geometry" />
        </mxCell>
        <mxCell id="RaB-RKomqh1cUEQTINMl-44" style="edgeStyle=orthogonalEdgeStyle;shape=connector;rounded=0;orthogonalLoop=1;jettySize=auto;html=1;strokeColor=default;strokeWidth=2;align=center;verticalAlign=middle;fontFamily=Helvetica;fontSize=12;fontColor=default;labelBackgroundColor=default;startSize=8;endArrow=classic;endSize=8;" edge="1" parent="1" source="RaB-RKomqh1cUEQTINMl-10" target="FpW7mS7BKre-1OPNzRV8-118">
          <mxGeometry relative="1" as="geometry" />
        </mxCell>
        <mxCell id="RaB-RKomqh1cUEQTINMl-10" value="Escribir Desconocido" style="rounded=1;whiteSpace=wrap;html=1;absoluteArcSize=1;arcSize=14;strokeWidth=2;fillColor=#dae8fc;strokeColor=#6c8ebf;" vertex="1" parent="1">
          <mxGeometry x="847" y="500" width="152" height="60" as="geometry" />
        </mxCell>
        <mxCell id="RaB-RKomqh1cUEQTINMl-14" value="" style="edgeStyle=orthogonalEdgeStyle;shape=connector;rounded=0;orthogonalLoop=1;jettySize=auto;html=1;strokeColor=#4EBC7D;strokeWidth=2;align=center;verticalAlign=middle;fontFamily=Helvetica;fontSize=12;fontColor=default;labelBackgroundColor=default;startSize=8;endArrow=classic;endSize=8;" edge="1" parent="1" source="RaB-RKomqh1cUEQTINMl-11" target="RaB-RKomqh1cUEQTINMl-13">
          <mxGeometry relative="1" as="geometry" />
        </mxCell>
        <mxCell id="RaB-RKomqh1cUEQTINMl-11" value="Tiene Madre" style="strokeWidth=2;html=1;shape=mxgraph.flowchart.decision;whiteSpace=wrap;fillColor=#e1d5e7;strokeColor=#9673a6;" vertex="1" parent="1">
          <mxGeometry x="1200" y="370" width="100" height="100" as="geometry" />
        </mxCell>
        <mxCell id="RaB-RKomqh1cUEQTINMl-47" style="edgeStyle=orthogonalEdgeStyle;shape=connector;rounded=0;orthogonalLoop=1;jettySize=auto;html=1;strokeColor=default;strokeWidth=2;align=center;verticalAlign=middle;fontFamily=Helvetica;fontSize=12;fontColor=default;labelBackgroundColor=default;startSize=8;endArrow=classic;endSize=8;" edge="1" parent="1" source="RaB-RKomqh1cUEQTINMl-13" target="FpW7mS7BKre-1OPNzRV8-118">
          <mxGeometry relative="1" as="geometry">
            <Array as="points">
              <mxPoint x="1406" y="760" />
            </Array>
          </mxGeometry>
        </mxCell>
        <mxCell id="RaB-RKomqh1cUEQTINMl-13" value="Escribir nombre Abuela" style="rounded=1;whiteSpace=wrap;html=1;absoluteArcSize=1;arcSize=14;strokeWidth=2;fillColor=#dae8fc;strokeColor=#6c8ebf;" vertex="1" parent="1">
          <mxGeometry x="1330" y="390" width="152" height="60" as="geometry" />
        </mxCell>
        <mxCell id="RaB-RKomqh1cUEQTINMl-15" value="" style="edgeStyle=none;curved=1;rounded=0;orthogonalLoop=1;jettySize=auto;html=1;fontSize=12;startSize=8;endSize=8;strokeColor=#BC4F4F;fontColor=#BC4F4F;strokeWidth=2;" edge="1" parent="1" source="RaB-RKomqh1cUEQTINMl-11" target="RaB-RKomqh1cUEQTINMl-17">
          <mxGeometry relative="1" as="geometry">
            <mxPoint x="1250" y="470" as="sourcePoint" />
            <mxPoint x="1250" y="500" as="targetPoint" />
          </mxGeometry>
        </mxCell>
        <mxCell id="RaB-RKomqh1cUEQTINMl-16" value="No" style="text;html=1;align=center;verticalAlign=middle;resizable=0;points=[];autosize=1;strokeColor=none;fillColor=none;fontSize=16;fontColor=#BC4F4F;" vertex="1" parent="1">
          <mxGeometry x="1251" y="470" width="40" height="30" as="geometry" />
        </mxCell>
        <mxCell id="RaB-RKomqh1cUEQTINMl-46" style="edgeStyle=orthogonalEdgeStyle;shape=connector;rounded=0;orthogonalLoop=1;jettySize=auto;html=1;strokeColor=default;strokeWidth=2;align=center;verticalAlign=middle;fontFamily=Helvetica;fontSize=12;fontColor=default;labelBackgroundColor=default;startSize=8;endArrow=classic;endSize=8;" edge="1" parent="1" source="RaB-RKomqh1cUEQTINMl-17" target="FpW7mS7BKre-1OPNzRV8-118">
          <mxGeometry relative="1" as="geometry">
            <Array as="points">
              <mxPoint x="1250" y="760" />
            </Array>
          </mxGeometry>
        </mxCell>
        <mxCell id="RaB-RKomqh1cUEQTINMl-17" value="Escribir Desconocido" style="rounded=1;whiteSpace=wrap;html=1;absoluteArcSize=1;arcSize=14;strokeWidth=2;fillColor=#dae8fc;strokeColor=#6c8ebf;" vertex="1" parent="1">
          <mxGeometry x="1174" y="500" width="152" height="60" as="geometry" />
        </mxCell>
        <mxCell id="RaB-RKomqh1cUEQTINMl-18" value="" style="edgeStyle=none;curved=1;rounded=0;orthogonalLoop=1;jettySize=auto;html=1;fontSize=12;startSize=8;endSize=8;strokeColor=#BC4F4F;fontColor=#BC4F4F;strokeWidth=2;" edge="1" parent="1" source="RaB-RKomqh1cUEQTINMl-20" target="RaB-RKomqh1cUEQTINMl-24">
          <mxGeometry relative="1" as="geometry">
            <mxPoint x="1286" y="240" as="targetPoint" />
          </mxGeometry>
        </mxCell>
        <mxCell id="RaB-RKomqh1cUEQTINMl-19" value="" style="edgeStyle=orthogonalEdgeStyle;shape=connector;rounded=0;orthogonalLoop=1;jettySize=auto;html=1;strokeColor=#4ebc7d;align=center;verticalAlign=middle;fontFamily=Helvetica;fontSize=12;fontColor=default;labelBackgroundColor=default;startSize=8;endArrow=classic;endSize=8;strokeWidth=2;" edge="1" parent="1" source="RaB-RKomqh1cUEQTINMl-20" target="RaB-RKomqh1cUEQTINMl-21">
          <mxGeometry relative="1" as="geometry">
            <mxPoint x="1202" y="160" as="targetPoint" />
          </mxGeometry>
        </mxCell>
        <mxCell id="RaB-RKomqh1cUEQTINMl-20" value="Tiene Padre" style="strokeWidth=2;html=1;shape=mxgraph.flowchart.decision;whiteSpace=wrap;fillColor=#e1d5e7;strokeColor=#9673a6;" vertex="1" parent="1">
          <mxGeometry x="1036" y="250" width="100" height="100" as="geometry" />
        </mxCell>
        <mxCell id="RaB-RKomqh1cUEQTINMl-49" style="edgeStyle=orthogonalEdgeStyle;shape=connector;rounded=0;orthogonalLoop=1;jettySize=auto;html=1;strokeColor=default;strokeWidth=2;align=center;verticalAlign=middle;fontFamily=Helvetica;fontSize=12;fontColor=default;labelBackgroundColor=default;startSize=8;endArrow=classic;endSize=8;" edge="1" parent="1" source="RaB-RKomqh1cUEQTINMl-21" target="FpW7mS7BKre-1OPNzRV8-118">
          <mxGeometry relative="1" as="geometry">
            <Array as="points">
              <mxPoint x="1570" y="180" />
              <mxPoint x="1570" y="760" />
            </Array>
          </mxGeometry>
        </mxCell>
        <mxCell id="RaB-RKomqh1cUEQTINMl-21" value="Escribir nombre Abuelo" style="rounded=1;whiteSpace=wrap;html=1;absoluteArcSize=1;arcSize=14;strokeWidth=2;fillColor=#dae8fc;strokeColor=#6c8ebf;" vertex="1" parent="1">
          <mxGeometry x="1010" y="150" width="152" height="60" as="geometry" />
        </mxCell>
        <mxCell id="RaB-RKomqh1cUEQTINMl-22" value="Si" style="text;html=1;align=center;verticalAlign=middle;resizable=0;points=[];autosize=1;strokeColor=none;fillColor=none;fontSize=16;fontColor=#4EBC7D;" vertex="1" parent="1">
          <mxGeometry x="1047" y="220" width="40" height="30" as="geometry" />
        </mxCell>
        <mxCell id="RaB-RKomqh1cUEQTINMl-23" value="No" style="text;html=1;align=center;verticalAlign=middle;resizable=0;points=[];autosize=1;strokeColor=none;fillColor=none;fontSize=16;fontColor=#BC4F4F;" vertex="1" parent="1">
          <mxGeometry x="1134" y="270" width="40" height="30" as="geometry" />
        </mxCell>
        <mxCell id="RaB-RKomqh1cUEQTINMl-48" style="edgeStyle=orthogonalEdgeStyle;shape=connector;rounded=0;orthogonalLoop=1;jettySize=auto;html=1;strokeColor=default;strokeWidth=2;align=center;verticalAlign=middle;fontFamily=Helvetica;fontSize=12;fontColor=default;labelBackgroundColor=default;startSize=8;endArrow=classic;endSize=8;" edge="1" parent="1" source="RaB-RKomqh1cUEQTINMl-24" target="FpW7mS7BKre-1OPNzRV8-118">
          <mxGeometry relative="1" as="geometry">
            <Array as="points">
              <mxPoint x="1570" y="300" />
              <mxPoint x="1570" y="760" />
            </Array>
          </mxGeometry>
        </mxCell>
        <mxCell id="RaB-RKomqh1cUEQTINMl-24" value="Escribir Desconocido" style="rounded=1;whiteSpace=wrap;html=1;absoluteArcSize=1;arcSize=14;strokeWidth=2;fillColor=#dae8fc;strokeColor=#6c8ebf;" vertex="1" parent="1">
          <mxGeometry x="1174" y="270" width="152" height="60" as="geometry" />
        </mxCell>
        <mxCell id="RaB-RKomqh1cUEQTINMl-26" value="" style="edgeStyle=orthogonalEdgeStyle;shape=connector;rounded=0;orthogonalLoop=1;jettySize=auto;html=1;strokeColor=#4EBC7D;strokeWidth=2;align=center;verticalAlign=middle;fontFamily=Helvetica;fontSize=12;fontColor=default;labelBackgroundColor=default;startSize=8;endArrow=classic;endSize=8;" edge="1" parent="1" source="RaB-RKomqh1cUEQTINMl-27" target="RaB-RKomqh1cUEQTINMl-28">
          <mxGeometry relative="1" as="geometry" />
        </mxCell>
        <mxCell id="RaB-RKomqh1cUEQTINMl-41" value="" style="edgeStyle=orthogonalEdgeStyle;shape=connector;rounded=0;orthogonalLoop=1;jettySize=auto;html=1;strokeColor=#9673a6;strokeWidth=2;align=center;verticalAlign=middle;fontFamily=Helvetica;fontSize=12;fontColor=default;labelBackgroundColor=default;startSize=8;endArrow=classic;endSize=8;fillColor=#e1d5e7;" edge="1" parent="1" source="v_abhQieS6RaejQ8PZbX-26" target="RaB-RKomqh1cUEQTINMl-34">
          <mxGeometry relative="1" as="geometry" />
        </mxCell>
        <mxCell id="RaB-RKomqh1cUEQTINMl-27" value="Tiene Madre" style="strokeWidth=2;html=1;shape=mxgraph.flowchart.decision;whiteSpace=wrap;fillColor=#e1d5e7;strokeColor=#9673a6;" vertex="1" parent="1">
          <mxGeometry x="380" y="370" width="100" height="100" as="geometry" />
        </mxCell>
        <mxCell id="RaB-RKomqh1cUEQTINMl-50" style="edgeStyle=orthogonalEdgeStyle;shape=connector;rounded=0;orthogonalLoop=1;jettySize=auto;html=1;strokeColor=default;strokeWidth=2;align=center;verticalAlign=middle;fontFamily=Helvetica;fontSize=12;fontColor=default;labelBackgroundColor=default;startSize=8;endArrow=classic;endSize=8;" edge="1" parent="1" source="RaB-RKomqh1cUEQTINMl-28" target="FpW7mS7BKre-1OPNzRV8-118">
          <mxGeometry relative="1" as="geometry">
            <Array as="points">
              <mxPoint x="260" y="760" />
            </Array>
          </mxGeometry>
        </mxCell>
        <mxCell id="RaB-RKomqh1cUEQTINMl-28" value="Escribir nombre Abuela" style="rounded=1;whiteSpace=wrap;html=1;absoluteArcSize=1;arcSize=14;strokeWidth=2;fillColor=#dae8fc;strokeColor=#6c8ebf;" vertex="1" parent="1">
          <mxGeometry x="190" y="390" width="152" height="60" as="geometry" />
        </mxCell>
        <mxCell id="RaB-RKomqh1cUEQTINMl-29" value="" style="edgeStyle=none;curved=1;rounded=0;orthogonalLoop=1;jettySize=auto;html=1;fontSize=12;startSize=8;endSize=8;strokeColor=#BC4F4F;fontColor=#BC4F4F;strokeWidth=2;" edge="1" parent="1" source="RaB-RKomqh1cUEQTINMl-27" target="RaB-RKomqh1cUEQTINMl-31">
          <mxGeometry relative="1" as="geometry">
            <mxPoint x="120" y="245" as="sourcePoint" />
            <mxPoint x="120" y="275" as="targetPoint" />
          </mxGeometry>
        </mxCell>
        <mxCell id="RaB-RKomqh1cUEQTINMl-30" value="No" style="text;html=1;align=center;verticalAlign=middle;resizable=0;points=[];autosize=1;strokeColor=none;fillColor=none;fontSize=16;fontColor=#BC4F4F;" vertex="1" parent="1">
          <mxGeometry x="430" y="460" width="40" height="30" as="geometry" />
        </mxCell>
        <mxCell id="RaB-RKomqh1cUEQTINMl-42" style="edgeStyle=orthogonalEdgeStyle;shape=connector;rounded=0;orthogonalLoop=1;jettySize=auto;html=1;strokeColor=default;strokeWidth=2;align=center;verticalAlign=middle;fontFamily=Helvetica;fontSize=12;fontColor=default;labelBackgroundColor=default;startSize=8;endArrow=classic;endSize=8;" edge="1" parent="1" source="RaB-RKomqh1cUEQTINMl-31" target="FpW7mS7BKre-1OPNzRV8-118">
          <mxGeometry relative="1" as="geometry">
            <Array as="points">
              <mxPoint x="440" y="760" />
            </Array>
          </mxGeometry>
        </mxCell>
        <mxCell id="RaB-RKomqh1cUEQTINMl-31" value="Escribir Desconocido" style="rounded=1;whiteSpace=wrap;html=1;absoluteArcSize=1;arcSize=14;strokeWidth=2;fillColor=#dae8fc;strokeColor=#6c8ebf;" vertex="1" parent="1">
          <mxGeometry x="354" y="500" width="152" height="60" as="geometry" />
        </mxCell>
        <mxCell id="RaB-RKomqh1cUEQTINMl-32" value="" style="edgeStyle=none;curved=1;rounded=0;orthogonalLoop=1;jettySize=auto;html=1;fontSize=12;startSize=8;endSize=8;strokeColor=#BC4F4F;fontColor=#BC4F4F;strokeWidth=2;" edge="1" parent="1" source="RaB-RKomqh1cUEQTINMl-34" target="RaB-RKomqh1cUEQTINMl-38">
          <mxGeometry relative="1" as="geometry">
            <mxPoint x="156" y="15" as="targetPoint" />
          </mxGeometry>
        </mxCell>
        <mxCell id="RaB-RKomqh1cUEQTINMl-33" value="" style="edgeStyle=orthogonalEdgeStyle;shape=connector;rounded=0;orthogonalLoop=1;jettySize=auto;html=1;strokeColor=#4ebc7d;align=center;verticalAlign=middle;fontFamily=Helvetica;fontSize=12;fontColor=default;labelBackgroundColor=default;startSize=8;endArrow=classic;endSize=8;strokeWidth=2;" edge="1" parent="1" source="RaB-RKomqh1cUEQTINMl-34" target="RaB-RKomqh1cUEQTINMl-35">
          <mxGeometry relative="1" as="geometry">
            <mxPoint x="72" y="-65" as="targetPoint" />
          </mxGeometry>
        </mxCell>
        <mxCell id="RaB-RKomqh1cUEQTINMl-34" value="Tiene Padre" style="strokeWidth=2;html=1;shape=mxgraph.flowchart.decision;whiteSpace=wrap;fillColor=#e1d5e7;strokeColor=#9673a6;" vertex="1" parent="1">
          <mxGeometry x="544" y="250" width="100" height="100" as="geometry" />
        </mxCell>
        <mxCell id="RaB-RKomqh1cUEQTINMl-52" style="edgeStyle=orthogonalEdgeStyle;shape=connector;rounded=0;orthogonalLoop=1;jettySize=auto;html=1;strokeColor=default;strokeWidth=2;align=center;verticalAlign=middle;fontFamily=Helvetica;fontSize=12;fontColor=default;labelBackgroundColor=default;startSize=8;endArrow=classic;endSize=8;" edge="1" parent="1" source="RaB-RKomqh1cUEQTINMl-35" target="FpW7mS7BKre-1OPNzRV8-118">
          <mxGeometry relative="1" as="geometry">
            <Array as="points">
              <mxPoint x="110" y="150" />
              <mxPoint x="110" y="760" />
            </Array>
          </mxGeometry>
        </mxCell>
        <mxCell id="RaB-RKomqh1cUEQTINMl-35" value="Escribir nombre Abuelo" style="rounded=1;whiteSpace=wrap;html=1;absoluteArcSize=1;arcSize=14;strokeWidth=2;fillColor=#dae8fc;strokeColor=#6c8ebf;" vertex="1" parent="1">
          <mxGeometry x="420" y="120" width="152" height="60" as="geometry" />
        </mxCell>
        <mxCell id="RaB-RKomqh1cUEQTINMl-36" value="Si" style="text;html=1;align=center;verticalAlign=middle;resizable=0;points=[];autosize=1;strokeColor=none;fillColor=none;fontSize=16;fontColor=#4EBC7D;" vertex="1" parent="1">
          <mxGeometry x="590" y="220" width="40" height="30" as="geometry" />
        </mxCell>
        <mxCell id="RaB-RKomqh1cUEQTINMl-37" value="No" style="text;html=1;align=center;verticalAlign=middle;resizable=0;points=[];autosize=1;strokeColor=none;fillColor=none;fontSize=16;fontColor=#BC4F4F;" vertex="1" parent="1">
          <mxGeometry x="506" y="270" width="40" height="30" as="geometry" />
        </mxCell>
        <mxCell id="RaB-RKomqh1cUEQTINMl-51" style="edgeStyle=orthogonalEdgeStyle;shape=connector;rounded=0;orthogonalLoop=1;jettySize=auto;html=1;strokeColor=default;strokeWidth=2;align=center;verticalAlign=middle;fontFamily=Helvetica;fontSize=12;fontColor=default;labelBackgroundColor=default;startSize=8;endArrow=classic;endSize=8;" edge="1" parent="1" source="RaB-RKomqh1cUEQTINMl-38" target="FpW7mS7BKre-1OPNzRV8-118">
          <mxGeometry relative="1" as="geometry">
            <Array as="points">
              <mxPoint x="110" y="300" />
              <mxPoint x="110" y="760" />
            </Array>
          </mxGeometry>
        </mxCell>
        <mxCell id="RaB-RKomqh1cUEQTINMl-38" value="Escribir Desconocido" style="rounded=1;whiteSpace=wrap;html=1;absoluteArcSize=1;arcSize=14;strokeWidth=2;fillColor=#dae8fc;strokeColor=#6c8ebf;" vertex="1" parent="1">
          <mxGeometry x="342" y="270" width="152" height="60" as="geometry" />
        </mxCell>
        <mxCell id="RaB-RKomqh1cUEQTINMl-40" value="Si" style="text;html=1;align=center;verticalAlign=middle;resizable=0;points=[];autosize=1;strokeColor=none;fillColor=none;fontSize=16;fontColor=#4EBC7D;" vertex="1" parent="1">
          <mxGeometry x="342" y="390" width="40" height="30" as="geometry" />
        </mxCell>
      </root>
    </mxGraphModel>
  </diagram>
</mxfile>
